<mxfile host="app.diagrams.net" modified="2023-11-20T14:40:28.235Z" agent="Mozilla/5.0 (Windows NT 10.0; Win64; x64; rv:109.0) Gecko/20100101 Firefox/119.0" etag="Xm0-wHdxJPd1GU0Gu8NV" version="22.1.3" type="github">
  <diagram name="Page-1" id="kPUvN9GjsmARtYSSQU7i">
    <mxGraphModel dx="1434" dy="774" grid="1" gridSize="10" guides="1" tooltips="1" connect="1" arrows="1" fold="1" page="1" pageScale="1" pageWidth="827" pageHeight="2300" math="0" shadow="0">
      <root>
        <mxCell id="0" />
        <mxCell id="1" parent="0" />
        <mxCell id="C6v-fsJboWqxhK3RXxR4-1" value="&lt;font face=&quot;Times New Roman&quot; style=&quot;font-size: 20px;&quot;&gt;&lt;b&gt;Titre&lt;/b&gt;&lt;/font&gt;" style="rounded=0;whiteSpace=wrap;html=1;" vertex="1" parent="1">
          <mxGeometry x="149" y="250" width="530" height="60" as="geometry" />
        </mxCell>
        <mxCell id="C6v-fsJboWqxhK3RXxR4-2" value="Authentification" style="text;html=1;align=center;verticalAlign=middle;resizable=0;points=[];autosize=1;strokeColor=none;fillColor=none;" vertex="1" parent="1">
          <mxGeometry x="359" y="380" width="110" height="30" as="geometry" />
        </mxCell>
        <mxCell id="C6v-fsJboWqxhK3RXxR4-4" value="Login" style="text;html=1;align=center;verticalAlign=middle;resizable=0;points=[];autosize=1;strokeColor=none;fillColor=none;" vertex="1" parent="1">
          <mxGeometry x="224" y="438" width="50" height="30" as="geometry" />
        </mxCell>
        <mxCell id="C6v-fsJboWqxhK3RXxR4-5" value="Mot de passe" style="text;html=1;align=center;verticalAlign=middle;resizable=0;points=[];autosize=1;strokeColor=none;fillColor=none;" vertex="1" parent="1">
          <mxGeometry x="199" y="520" width="100" height="30" as="geometry" />
        </mxCell>
        <mxCell id="C6v-fsJboWqxhK3RXxR4-6" value="" style="rounded=0;whiteSpace=wrap;html=1;" vertex="1" parent="1">
          <mxGeometry x="209" y="470" width="340" height="30" as="geometry" />
        </mxCell>
        <mxCell id="C6v-fsJboWqxhK3RXxR4-7" value="" style="rounded=0;whiteSpace=wrap;html=1;" vertex="1" parent="1">
          <mxGeometry x="209" y="560" width="340" height="30" as="geometry" />
        </mxCell>
        <mxCell id="C6v-fsJboWqxhK3RXxR4-8" value="Connexion" style="rounded=1;whiteSpace=wrap;html=1;" vertex="1" parent="1">
          <mxGeometry x="343" y="660" width="120" height="60" as="geometry" />
        </mxCell>
      </root>
    </mxGraphModel>
  </diagram>
</mxfile>
